<?xml version="1.0" standalone="no"?>
<!DOCTYPE svg PUBLIC "-//W3C//DTD SVG 20010904//EN"
 "http://www.w3.org/TR/2001/REC-SVG-20010904/DTD/svg10.dtd">
<svg version="1.0" xmlns="http://www.w3.org/2000/svg"
 width="176.000000pt" height="172.000000pt" viewBox="0 0 176.000000 172.000000"
 preserveAspectRatio="xMidYMid meet">

<g transform="translate(0.000000,172.000000) scale(0.100000,-0.100000)"
fill="#000000" stroke="none">
<path d="M1392 1633 c-15 -16 -48 -52 -74 -80 -25 -28 -49 -49 -52 -46 -3 4
-6 1 -6 -6 0 -6 -23 -43 -52 -81 -28 -38 -53 -77 -55 -87 -12 -66 -13 -105 -4
-138 6 -21 7 -34 2 -29 -4 5 -13 29 -20 54 -23 79 -103 183 -182 237 -95 64
-163 95 -224 104 -33 4 -78 10 -100 14 -51 8 -207 -19 -243 -42 -21 -14 -25
-15 -17 -2 9 13 8 13 -5 -1 -8 -8 -35 -24 -60 -34 -25 -11 -61 -36 -81 -56
-19 -20 -52 -49 -72 -64 -20 -15 -42 -43 -49 -61 -6 -19 -16 -31 -21 -28 -6 3
-7 1 -3 -5 8 -13 -12 -51 -36 -70 -10 -7 -18 -19 -18 -25 0 -7 5 -4 11 6 21
36 26 15 6 -25 -18 -37 -21 -58 -19 -163 2 -149 5 -184 14 -179 13 8 20 -17 8
-31 -9 -11 -9 -15 -1 -15 6 0 17 -12 24 -27 6 -16 15 -31 20 -34 5 -4 10 -18
10 -31 1 -16 7 -24 15 -21 6 3 12 0 12 -6 0 -6 -5 -11 -11 -11 -5 0 -8 -4 -4
-9 3 -5 1 -12 -5 -16 -6 -4 -8 -11 -4 -16 3 -5 10 -7 15 -3 5 3 7 10 4 15 -4
5 -2 9 3 9 13 0 24 -29 16 -41 -3 -5 -10 -6 -16 -3 -7 5 -8 2 -4 -5 6 -9 13
-8 27 5 18 16 20 16 44 -6 18 -17 23 -30 19 -47 -4 -14 -2 -23 5 -23 6 0 11
-5 11 -12 0 -6 -7 -4 -18 5 -18 16 -32 14 -32 -6 0 -5 7 -7 15 -4 21 9 28 -10
8 -22 -10 -6 -13 -11 -8 -11 6 0 17 6 23 12 10 10 15 10 21 -1 6 -9 11 -10 15
-2 4 6 16 16 26 21 16 8 18 8 14 -5 -3 -8 -10 -13 -14 -10 -5 3 -12 -5 -16
-17 -12 -36 -13 -49 -3 -42 5 3 7 10 4 15 -4 5 -1 9 6 9 7 0 28 12 48 27 36
27 36 27 19 3 -10 -14 -23 -34 -30 -45 -10 -18 -10 -19 5 -6 21 17 22 3 1 -29
-8 -14 3 -5 25 19 41 44 52 48 29 11 -10 -16 -10 -22 1 -32 8 -8 11 -8 8 -2
-4 7 -1 14 7 17 22 9 28 -5 8 -19 -9 -7 -17 -18 -17 -26 0 -7 -9 -12 -20 -10
-16 2 -17 1 -6 -7 12 -8 13 -14 3 -36 -7 -15 -9 -31 -6 -37 4 -6 2 -8 -3 -5
-12 8 -39 -20 -29 -30 3 -3 6 -2 6 4 0 5 7 10 15 10 19 0 19 -21 0 -37 -8 -7
-14 -19 -13 -28 2 -8 -3 -17 -11 -20 -9 -3 -11 0 -6 9 5 8 -1 5 -13 -5 -28
-24 -28 -29 1 -20 28 8 58 34 52 45 -3 4 0 11 6 15 8 4 9 3 5 -4 -4 -8 0 -12
11 -12 14 0 10 -6 -14 -26 -18 -14 -33 -32 -33 -39 0 -9 13 -2 32 16 35 31 43
34 53 20 3 -5 -6 -18 -20 -29 -14 -11 -25 -23 -25 -28 0 -4 -8 -17 -17 -28
-12 -14 -7 -12 12 5 62 54 122 87 79 44 -13 -12 -14 -19 -5 -28 8 -8 18 -4 38
14 59 53 66 51 13 -4 -30 -32 -55 -63 -55 -70 0 -7 -5 -12 -12 -12 -7 0 -18
-7 -25 -15 -11 -12 -11 -12 5 -1 9 7 17 11 17 7 0 -4 41 28 90 70 50 41 90 80
90 85 0 6 4 8 9 4 5 -3 12 -1 16 5 4 6 11 7 17 4 6 -4 8 -3 5 3 -7 12 36 56
46 47 4 -4 13 -1 21 5 10 9 16 9 21 1 4 -7 -2 -14 -14 -17 -11 -3 -18 -10 -15
-15 4 -6 3 -13 -2 -17 -5 -3 -20 -20 -34 -36 -13 -17 -1 -8 27 19 29 28 56 46
60 42 4 -4 -6 -17 -21 -30 -16 -12 -27 -28 -25 -35 3 -9 14 -6 35 13 38 32 52
23 18 -11 -30 -30 -23 -44 8 -17 l22 19 -23 -32 c-14 -20 -18 -33 -10 -33 8 0
5 -8 -7 -22 -10 -13 -3 -10 16 8 59 51 77 60 38 19 -20 -22 -38 -44 -40 -50
-2 -5 -7 -9 -11 -7 -5 1 -6 -2 -2 -8 5 -8 11 -8 21 1 7 6 12 14 10 18 -2 3 13
14 33 24 l36 19 -25 -27 c-21 -23 -15 -21 30 11 l55 38 -42 -43 c-24 -24 -43
-48 -43 -53 0 -11 66 34 89 61 12 14 13 14 6 -4 -4 -11 -8 -25 -9 -31 -1 -7
-8 -19 -15 -28 -22 -27 3 -18 35 12 16 16 38 32 49 35 13 5 7 -5 -17 -28 l-38
-35 36 0 c24 0 46 8 66 25 16 14 37 25 46 25 12 0 9 -6 -10 -18 -16 -9 -28
-20 -28 -24 0 -12 38 -10 45 2 3 6 21 17 38 26 l32 17 -24 -27 c-14 -14 -20
-26 -14 -26 5 0 18 9 28 20 10 11 25 20 33 20 9 0 6 -7 -9 -20 -23 -19 -23
-19 -3 -20 11 0 29 9 39 20 10 11 22 20 28 20 5 0 -1 -9 -14 -20 l-24 -19 37
-1 c20 0 40 4 43 10 3 5 16 15 28 21 22 10 22 10 -1 -10 l-23 -20 36 2 c20 2
41 9 47 17 8 12 9 12 4 -3 -5 -15 3 -17 75 -17 l80 0 59 57 c33 31 57 60 54
65 -3 5 -10 5 -16 2 -7 -4 -8 -2 -4 5 6 8 12 9 20 2 9 -8 20 -3 39 17 15 16
25 31 22 35 -3 4 -3 5 0 3 8 -5 59 45 73 71 17 31 15 35 -7 16 -11 -9 -18 -19
-17 -22 2 -3 -8 -15 -23 -25 -14 -11 -21 -13 -14 -6 6 7 9 18 7 25 -3 7 -1 16
5 19 6 4 8 12 6 19 -3 7 8 21 25 32 16 11 30 24 30 29 0 5 -11 -1 -24 -14 -24
-22 -25 -22 -23 -2 0 12 3 19 6 17 6 -7 31 16 31 29 0 6 -5 4 -10 -4 -7 -12
-12 -7 -22 20 -10 26 -12 69 -8 163 8 191 -17 254 -132 340 -69 51 -215 104
-292 106 -28 1 -29 1 -11 21 21 23 4 27 -19 4 -9 -8 -16 -11 -16 -6 0 22 38
39 89 41 30 1 67 8 82 15 21 10 29 11 33 2 2 -6 5 -5 5 4 1 17 40 46 56 41 6
-1 7 0 3 4 -8 8 103 162 131 182 11 7 18 19 15 26 -2 7 4 22 15 34 11 11 17
24 14 27 -4 3 -1 6 5 6 7 0 11 3 10 8 -1 4 2 18 6 31 9 25 -3 43 -29 47 -9 1
-33 -16 -54 -39 -70 -76 -106 -113 -85 -87 39 45 97 143 98 164 2 22 -10 36
-32 36 -7 0 -36 -24 -64 -52 l-51 -53 38 57 c26 40 35 63 30 77 -11 37 -45 25
-102 -36 l-54 -58 41 62 c47 70 48 96 7 101 -19 2 -35 -5 -55 -25z m12 -70
c-20 -32 -56 -83 -79 -113 -57 -75 -58 -79 -45 -95 21 -25 34 -17 89 53 69 87
132 155 137 149 6 -6 -86 -144 -119 -179 -12 -13 -27 -35 -33 -49 -10 -22 -9
-27 9 -39 22 -13 32 -6 97 80 43 57 142 157 129 130 -7 -14 -47 -71 -91 -128
-43 -57 -78 -109 -78 -116 0 -8 7 -19 15 -26 17 -14 44 11 174 155 50 56 59
63 45 35 -21 -43 -154 -227 -186 -257 -35 -33 -91 -53 -149 -53 -49 0 -55 -3
-103 -51 -47 -48 -87 -68 -136 -69 -8 0 2 17 26 43 95 99 96 101 89 186 -5 52
-3 86 6 106 6 17 13 35 15 42 4 22 201 251 217 252 4 1 -9 -25 -29 -56z m-731
-39 c77 -6 92 -10 112 -32 16 -17 30 -23 44 -19 12 3 21 1 21 -4 0 -5 6 -9 13
-9 7 0 25 -11 40 -25 15 -14 27 -22 27 -18 0 17 110 -108 116 -132 3 -14 10
-25 14 -25 9 0 18 -21 30 -65 5 -16 13 -44 18 -62 10 -30 7 -35 -44 -92 -34
-37 -68 -64 -90 -71 -35 -12 -154 -78 -184 -103 -31 -25 -83 -99 -99 -142 -20
-53 -189 -235 -218 -235 -38 1 -159 50 -180 75 -12 14 -27 25 -34 25 -14 0
-122 110 -115 117 3 3 -3 14 -13 24 -10 11 -24 39 -31 62 -6 23 -19 55 -27 71
-12 21 -12 27 -3 21 9 -6 11 -4 4 6 -4 8 -10 34 -12 59 -2 25 -9 48 -15 52 -9
6 -9 8 1 8 6 0 11 3 10 8 -1 4 3 16 9 27 6 12 10 37 8 58 -2 22 1 37 7 37 6 0
9 3 5 6 -3 4 0 19 9 35 8 16 14 30 14 31 -3 7 15 46 32 70 11 16 16 33 12 39
-4 7 -3 9 3 6 6 -4 13 0 17 8 3 8 15 15 26 15 14 0 25 12 36 40 11 26 22 40
34 40 11 0 22 5 25 10 4 6 10 8 15 5 5 -3 15 1 23 9 31 31 100 59 148 60 27 1
54 7 61 14 7 7 19 10 28 8 8 -3 55 -8 103 -12z m705 -587 c23 -9 43 -16 45
-15 1 0 25 -10 52 -23 28 -12 54 -23 58 -23 4 -1 12 -8 17 -16 5 -8 10 -12 10
-8 0 14 50 -35 50 -49 0 -8 4 -12 8 -9 5 3 19 -17 32 -44 19 -41 22 -59 16
-107 -5 -54 -10 -62 -60 -109 -30 -29 -68 -58 -84 -66 l-29 -15 2 54 c1 38 -2
53 -12 53 -7 0 -13 6 -13 14 0 8 -7 17 -16 20 -8 3 -12 10 -9 16 3 5 2 10 -3
10 -5 0 -9 7 -9 15 0 8 3 12 7 10 4 -2 12 7 19 21 6 15 16 22 23 18 7 -5 8 -3
4 5 -5 7 0 21 11 33 18 21 18 21 -4 9 -20 -10 -23 -9 -23 9 0 12 -13 28 -31
39 -17 11 -40 37 -49 59 -53 117 -236 135 -323 32 -14 -16 -28 -38 -31 -48 -4
-12 -25 -23 -57 -32 -41 -11 -108 -50 -86 -50 3 0 2 -14 -3 -31 -13 -45 9 -91
53 -112 40 -19 82 -21 145 -7 91 21 142 12 149 -27 1 -6 -11 -26 -28 -45 -60
-65 -72 -82 -21 -31 41 41 52 47 52 32 0 -11 5 -30 11 -41 7 -13 7 -18 1 -14
-6 3 -14 1 -18 -5 -4 -8 -3 -9 4 -5 7 4 12 2 12 -3 0 -6 3 -10 8 -10 19 3 33
-2 27 -10 -3 -5 -1 -12 5 -16 5 -3 10 -1 10 6 0 10 3 10 12 1 6 -6 9 -14 6
-17 -9 -9 -82 -12 -110 -4 -16 4 -28 4 -28 -1 0 -5 -12 -7 -27 -5 -16 2 -61 9
-101 16 -39 6 -70 15 -67 20 4 5 0 6 -8 3 -27 -10 -201 95 -212 128 -4 10 -13
24 -21 32 -8 9 -15 36 -15 68 -2 88 46 153 161 220 30 18 60 33 65 34 6 1 35
9 65 19 30 9 60 18 65 20 34 10 255 -4 293 -18z m-83 -53 c25 -10 77 -79 75
-99 -3 -34 2 -47 15 -42 7 3 24 -2 36 -12 l23 -18 -27 -32 c-33 -39 -34 -65
-5 -111 45 -75 64 -223 33 -267 -13 -19 -19 -20 -45 -12 -33 12 -37 22 -39 93
-2 46 -25 104 -43 107 -4 1 -14 2 -20 3 -8 0 -15 21 -18 51 -6 60 -12 70 -52
91 -22 11 -45 14 -82 10 -140 -17 -177 -18 -200 -2 -24 15 -28 54 -7 79 16 20
84 42 89 28 9 -27 30 -8 36 33 9 55 43 91 105 110 47 14 73 12 126 -10z
m-1140 -264 c3 -5 1 -10 -4 -10 -6 0 -11 5 -11 10 0 6 2 10 4 10 3 0 8 -4 11
-10z m531 -97 l-3 -106 -56 -71 c-76 -97 -112 -132 -148 -145 -16 -5 -27 -6
-25 -2 3 5 -6 9 -21 8 -29 0 -53 26 -53 56 0 39 34 86 160 217 72 74 130 138
130 142 0 5 4 8 9 8 5 0 8 -47 7 -107z m174 -98 c55 -28 163 -66 205 -72 56
-8 180 -10 213 -2 18 4 32 3 32 -3 0 -5 5 -6 10 -3 6 3 10 -2 10 -12 0 -10 6
-30 14 -45 l14 -26 -63 -12 c-113 -21 -288 2 -395 53 -104 49 -180 141 -178
215 l1 31 45 -50 c25 -28 66 -61 92 -74z m799 23 c-6 -21 -27 -51 -44 -67 -34
-31 -115 -85 -119 -79 -2 2 0 24 3 50 6 44 10 50 65 88 33 23 69 54 80 68 l21
27 3 -25 c2 -13 -2 -41 -9 -62z m-1399 58 c0 -2 -8 -10 -17 -17 -16 -13 -17
-12 -4 4 13 16 21 21 21 13z m584 -226 c9 0 16 -4 16 -10 0 -5 5 -10 12 -10 6
0 30 -8 52 -19 62 -28 127 -41 234 -46 184 -7 350 41 465 137 42 35 47 37 47
18 0 -32 -25 -81 -58 -117 -29 -31 -154 -101 -196 -109 -12 -2 -32 -7 -46 -9
-167 -36 -290 -29 -437 25 -128 47 -201 124 -207 216 l-2 31 52 -53 c29 -30
59 -54 68 -54z m818 -82 c-7 -7 -12 -8 -12 -2 0 14 12 26 19 19 2 -3 -1 -11
-7 -17z m-117 -138 c-27 -28 -54 -50 -60 -50 -9 0 94 99 105 100 2 0 -18 -22
-45 -50z m-1095 6 c0 -2 -8 -10 -17 -17 -16 -13 -17 -12 -4 4 13 16 21 21 21
13z m878 -35 c-7 -9 -13 -18 -15 -20 -1 -2 -1 5 0 16 0 11 7 20 14 20 10 0 10
-4 1 -16z"/>
<path d="M602 1459 c-18 -7 -23 -15 -20 -36 2 -21 13 -33 46 -50 23 -11 51
-19 62 -16 26 7 37 50 19 68 -26 26 -82 43 -107 34z m76 -45 c30 -20 19 -35
-18 -24 -40 12 -50 19 -50 36 0 17 29 12 68 -12z"/>
<path d="M822 1378 c-28 -28 -5 -66 52 -88 77 -29 101 46 26 85 -35 18 -62 19
-78 3z m76 -34 c31 -21 28 -38 -5 -29 -31 7 -53 23 -53 36 0 14 34 10 58 -7z"/>
<path d="M197 1274 c-23 -13 -28 -21 -25 -47 2 -24 8 -33 26 -35 61 -9 131 48
102 83 -16 19 -67 19 -103 -1z m83 -23 c0 -9 -45 -31 -65 -31 -26 0 -16 21 17
35 32 13 48 12 48 -4z"/>
<path d="M362 1164 c-30 -21 -30 -68 1 -88 41 -27 87 -3 87 45 0 27 -30 59
-55 59 -6 0 -21 -7 -33 -16z"/>
<path d="M746 1164 c-21 -21 -20 -67 2 -86 13 -11 25 -13 50 -6 42 11 49 31
29 74 -19 38 -54 46 -81 18z"/>
<path d="M229 1024 c-22 -25 -22 -26 -3 -16 12 6 24 18 28 27 8 21 3 19 -25
-11z"/>
<path d="M260 1000 c-6 -11 -8 -20 -6 -20 3 0 10 9 16 20 6 11 8 20 6 20 -3 0
-10 -9 -16 -20z"/>
<path d="M288 992 c-12 -15 -11 -16 5 -3 11 9 17 10 17 2 0 -6 -12 -16 -26
-21 -14 -6 -22 -14 -19 -20 8 -13 8 -14 39 19 22 23 24 30 12 34 -8 3 -20 -2
-28 -11z"/>
<path d="M423 984 c-16 -43 79 -118 157 -122 75 -5 179 60 176 109 -1 29 -32
37 -40 11 -4 -11 -23 -31 -42 -45 -30 -21 -45 -24 -87 -22 -76 5 -75 5 -111
47 -37 42 -44 45 -53 22z"/>
<path d="M899 983 c-13 -16 -12 -17 4 -4 9 7 17 15 17 17 0 8 -8 3 -21 -13z"/>
<path d="M189 963 l-24 -28 28 24 c25 23 32 31 24 31 -2 0 -14 -12 -28 -27z"/>
<path d="M193 829 c-17 -17 -16 -54 2 -69 22 -18 92 -25 110 -10 22 18 18 47
-7 64 -34 22 -91 30 -105 15z m72 -31 c32 -14 32 -28 1 -28 -35 0 -56 10 -56
26 0 17 20 18 55 2z"/>
<path d="M343 689 c-31 -32 6 -82 68 -94 66 -12 95 55 36 83 -42 20 -90 25
-104 11z m76 -30 c38 -13 41 -29 5 -29 -32 0 -66 18 -59 31 8 12 15 11 54 -2z"/>
<path d="M1545 682 c-12 -9 -27 -26 -35 -37 -8 -11 3 -4 23 14 33 32 42 41 35
41 -2 0 -12 -8 -23 -18z"/>
<path d="M1552 641 c-44 -32 -69 -61 -36 -42 25 14 91 70 83 71 -3 0 -24 -13
-47 -29z"/>
<path d="M1579 623 c-13 -16 -12 -17 4 -4 16 13 21 21 13 21 -2 0 -10 -8 -17
-17z"/>
<path d="M1564 578 l-19 -23 23 19 c21 18 27 26 19 26 -2 0 -12 -10 -23 -22z"/>
<path d="M864 538 l-19 -23 23 19 c12 11 22 21 22 23 0 8 -8 2 -26 -19z"/>
<path d="M1223 485 c0 -8 4 -12 9 -9 5 3 6 10 3 15 -9 13 -12 11 -12 -6z"/>
<path d="M1069 453 l-24 -28 28 24 c25 23 32 31 24 31 -2 0 -14 -12 -28 -27z"/>
<path d="M652 433 c-12 -13 -22 -26 -22 -29 0 -2 -39 -44 -88 -94 -48 -49 -84
-90 -80 -90 9 0 186 179 206 208 21 32 11 35 -16 5z"/>
<path d="M429 253 l-24 -28 28 24 c15 14 27 26 27 28 0 8 -8 1 -31 -24z"/>
<path d="M110 1596 c0 -2 7 -7 16 -10 8 -3 12 -2 9 4 -6 10 -25 14 -25 6z"/>
<path d="M54 1438 l-19 -23 23 19 c21 18 27 26 19 26 -2 0 -12 -10 -23 -22z"/>
<path d="M1698 1373 c-18 -21 -31 -43 -25 -43 2 0 13 14 25 30 25 33 24 41 0
13z"/>
<path d="M1359 1023 c-13 -16 -12 -17 4 -4 16 13 21 21 13 21 -2 0 -10 -8 -17
-17z"/>
<path d="M154 557 c-14 -16 -15 -18 -2 -9 13 10 17 10 21 0 3 -9 8 -10 15 -3
7 7 6 14 -3 22 -10 9 -17 7 -31 -10z"/>
<path d="M9 263 c-13 -16 -12 -17 4 -4 16 13 21 21 13 21 -2 0 -10 -8 -17 -17z"/>
<path d="M29 253 c-13 -16 -12 -17 4 -4 16 13 21 21 13 21 -2 0 -10 -8 -17
-17z"/>
<path d="M50 222 c-19 -19 -39 -42 -44 -51 -5 -9 14 6 43 34 28 27 51 51 51
52 0 9 -19 -4 -50 -35z"/>
<path d="M649 213 c-13 -16 -12 -17 4 -4 16 13 21 21 13 21 -2 0 -10 -8 -17
-17z"/>
<path d="M1640 113 l-115 -113 44 2 c33 1 53 9 85 36 22 19 43 38 44 43 2 5 8
7 13 3 5 -3 8 -2 7 3 -5 13 28 53 37 45 5 -4 5 -1 1 6 -5 8 -13 9 -25 3 -15
-8 -78 -75 -112 -118 -5 -7 -15 -13 -21 -13 -6 0 -4 8 6 19 10 11 14 26 10 37
-3 12 -3 14 3 7 6 -8 14 -6 30 7 12 9 19 20 16 24 -3 3 2 8 11 12 9 3 13 10
10 15 -3 5 -1 8 4 7 10 -3 77 81 70 86 -2 2 -55 -48 -118 -111z"/>
<path d="M175 210 c-4 -6 -11 -7 -17 -4 -7 4 -8 2 -4 -5 6 -9 11 -9 22 0 14
11 18 19 10 19 -3 0 -8 -5 -11 -10z"/>
<path d="M85 191 c-3 -5 -1 -12 4 -15 5 -3 11 1 15 9 6 16 -9 21 -19 6z"/>
<path d="M149 156 c9 -11 9 -16 -1 -23 -7 -4 -26 -24 -43 -43 -25 -29 -22 -28
16 8 25 23 49 39 53 35 4 -4 4 0 1 9 -4 9 -14 19 -22 22 -13 5 -14 4 -4 -8z"/>
<path d="M205 161 c-3 -5 -2 -12 3 -15 5 -3 9 1 9 9 0 17 -3 19 -12 6z"/>
<path d="M185 120 c-4 -6 -11 -7 -17 -4 -7 4 -8 2 -4 -4 7 -12 36 -5 36 9 0
12 -7 11 -15 -1z"/>
<path d="M230 90 c-19 -21 -40 -39 -46 -40 -6 0 -21 -11 -33 -24 -35 -37 0
-27 40 12 17 17 37 29 42 25 6 -3 7 -1 3 5 -3 6 -2 13 4 17 9 6 34 46 28 45
-2 -1 -19 -19 -38 -40z"/>
<path d="M277 93 c5 -12 3 -14 -8 -8 -8 4 -11 4 -6 0 9 -10 -21 -45 -38 -45
-15 0 -40 -28 -33 -36 3 -3 29 17 59 44 41 38 49 50 36 55 -12 4 -14 2 -10
-10z"/>
<path d="M589 98 c-17 -15 -43 -48 -38 -48 2 0 17 14 32 30 30 31 32 40 6 18z"/>
<path d="M129 83 c-13 -16 -12 -17 4 -4 9 7 17 15 17 17 0 8 -8 3 -21 -13z"/>
<path d="M393 83 c-3 -10 -8 -22 -11 -28 -3 -5 4 -2 16 9 12 10 19 23 16 27
-8 13 -14 11 -21 -8z"/>
<path d="M606 81 c-14 -15 -14 -20 -3 -24 15 -6 41 29 28 37 -5 3 -16 -3 -25
-13z"/>
<path d="M689 53 c-13 -16 -12 -17 4 -4 9 7 17 15 17 17 0 8 -8 3 -21 -13z"/>
<path d="M340 35 c-11 -13 -10 -14 4 -9 9 3 16 10 16 15 0 13 -6 11 -20 -6z"/>
<path d="M865 30 c-3 -6 1 -7 9 -4 18 7 21 14 7 14 -6 0 -13 -4 -16 -10z"/>
<path d="M605 10 c-3 -5 -1 -10 4 -10 6 0 11 5 11 10 0 6 -2 10 -4 10 -3 0 -8
-4 -11 -10z"/>
</g>
</svg>
